# xmcd
#
# Track frame offsets: 
#        150
#        20631
#        41768
#        76145
#        101588
#        121513
#        151680
#        174046
#        195289
#        226933
#        252922
#        280739
#        296458
#        317605
#        341008
#
# Disc length: 4682 seconds
#
# Revision: 0
# Processed by: cddbd v1.5.2PL0 Copyright (c) Steve Scherf et al.
# Submitted via: ExactAudioCopyFreeDBPlugin 1.0
#
DISCID=b212480f
DTITLE=The Barcodes - The Barcode Live! in Session for the BBC
DYEAR=2006
DGENRE=Blues
TTITLE0=Blind Willie McTell - Statesboro' Blues
TTITLE1=Mose Allison - Partchman Farm
TTITLE2=Johnny Guitar Watson - Sweet Lovin' Mama
TTITLE3=Cotton - Glen - Crazy Life
TTITLE4=Coccia - Glen - Halfway To Nowhere
TTITLE5=Jimmy Rogers - That's Alright
TTITLE6=Ben Tucker - Bob Dorough - Comin' Home Baby
TTITLE7=Willie Dixon - 7th Son 
TTITLE8=William Weldon - Roy Jacobs - Outskirts Of Town
TTITLE9=T-Bone Walker - Back At The Chicken Shack - T-Bone Shuffle 
TTITLE10=Sonny Boy Williamson - Checkin' On My Baby
TTITLE11=Alan Glen - Be Cool
TTITLE12=Coccia - Haddrell - Undercover Lover
TTITLE13=Coccia - Glen - Haddrell - The Snitch
TTITLE14=Mose  - I Don't Worry About A Thing
EXTD=
EXTT0=
EXTT1=
EXTT2=
EXTT3=
EXTT4=
EXTT5=
EXTT6=
EXTT7=
EXTT8=
EXTT9=
EXTT10=
EXTT11=
EXTT12=
EXTT13=
EXTT14=
PLAYORDER=
